<svg width="105" height="100" viewBox="0 0 105 100" fill="none" xmlns="http://www.w3.org/2000/svg">
<path d="M14.6418 89.9072H90.3562C99.4968 89.9072 104.156 85.5536 104.156 76.9322V33.1125C104.156 24.4911 99.4968 20.1804 90.3562 20.1804H80.0737C76.6462 20.1804 75.5925 19.5108 73.6143 17.4179L70.0537 13.65C67.9012 11.35 65.6606 10.0929 61.0893 10.0929H43.5993C39.0731 10.0929 36.8306 11.35 34.635 13.65L31.0743 17.4179C29.1412 19.4679 28.0425 20.1804 24.615 20.1804H14.64C5.49934 20.1804 0.839966 24.4911 0.839966 33.1125V76.9322C0.839966 85.5536 5.50122 89.9072 14.6418 89.9072ZM14.7712 83.1679C10.4212 83.1679 7.91622 80.95 7.91622 76.5965V33.4893C7.91622 29.1358 10.4212 26.9179 14.7712 26.9179H26.3718C30.3281 26.9179 32.4375 26.2072 34.635 23.8643L38.1056 20.1804C40.6106 17.5018 41.8856 16.8322 45.7968 16.8322H58.8918C62.8031 16.8322 64.0781 17.5018 66.5831 20.1804L70.0537 23.8625C72.2512 26.2072 74.3606 26.9179 78.3168 26.9179H90.225C94.575 26.9179 97.0818 29.1358 97.0818 33.4893V76.5965C97.0818 80.95 94.5768 83.1679 90.225 83.1679H14.7712ZM52.4775 76.5143C55.6345 76.5228 58.7621 75.9362 61.68 74.7882C64.5979 73.6402 67.2483 71.9536 69.4786 69.8255C71.7089 67.6975 73.4749 65.1701 74.6748 62.389C75.8747 59.6079 76.4848 56.6281 76.47 53.6215C76.47 40.8965 65.835 30.7286 52.4756 30.7286C39.2043 30.7286 28.5262 40.8965 28.5262 53.6215C28.5262 66.3429 39.2043 76.5143 52.4756 76.5143M84.0712 43.4072C87.06 43.4072 89.52 41.1072 89.52 38.2608C89.52 36.8845 88.9459 35.5646 87.9241 34.5914C86.9022 33.6182 85.5163 33.0715 84.0712 33.0715C82.6261 33.0715 81.2402 33.6182 80.2184 34.5914C79.1965 35.5646 78.6225 36.8845 78.6225 38.2608C78.6225 41.1072 81.0825 43.4072 84.0712 43.4072ZM52.4775 70.1536C42.9412 70.1536 35.1637 62.7875 35.1637 53.6215C35.1637 44.4572 42.8981 37.0911 52.4775 37.0911C54.7577 37.0885 57.016 37.5143 59.1231 38.3441C61.2303 39.1739 63.1449 40.3914 64.7573 41.9269C66.3698 43.4623 67.6483 45.2856 68.5198 47.2924C69.3913 49.2991 69.8387 51.4499 69.8362 53.6215C69.8389 55.7932 69.3918 57.9442 68.5204 59.9511C67.649 61.958 66.3705 63.7816 64.758 65.3172C63.1456 66.8529 61.2309 68.0705 59.1236 68.9004C57.0163 69.7303 54.7578 70.1562 52.4775 70.1536Z" fill="#7C838A"/>
</svg>
