<svg width="550" height="957" viewBox="0 0 550 957" fill="none" xmlns="http://www.w3.org/2000/svg">
<path fill-rule="evenodd" clip-rule="evenodd" d="M299.963 488.108C343.049 486.696 384.815 499.182 421.197 520.844C459.469 543.632 489.605 575.275 510.043 613.192C533.503 656.718 560.633 705.191 545.742 751.911C530.771 798.879 473.499 817.836 434.422 850.443C389.486 887.939 360.144 956.416 299.963 956.997C239.858 957.576 213.227 884.651 163.477 853.057C111.055 819.766 17.1311 825.391 2.01656 767.786C-13.4351 708.896 63.789 666.035 101.465 616.716C126.448 584.014 149.433 551.471 184.742 528.595C219.324 506.189 257.939 489.486 299.963 488.108Z" fill="#229D8E"/>
</svg>
